<svg xmlns="http://www.w3.org/2000/svg" xmlns:xlink="http://www.w3.org/1999/xlink" width="500" zoomAndPan="magnify" viewBox="0 0 375 374.999991" height="500" preserveAspectRatio="xMidYMid meet" version="1.2"><defs><clipPath id="f4e396a53a"><path d="M 0 32.019531 L 375 32.019531 L 375 360.96875 L 0 360.96875 Z M 0 32.019531 "/></clipPath><clipPath id="25be6a47bc"><path d="M 0 129.070312 C 0 233.546875 187.5 360.96875 187.5 360.96875 C 187.5 360.96875 374.175781 232.644531 375 129.070312 C 375 75.59375 331.425781 32.019531 277.949219 32.019531 C 236.851562 32.019531 201.449219 58.34375 187.5 94.496094 C 173.550781 58.34375 138.148438 32.019531 97.050781 32.019531 C 43.574219 32.019531 0 75.59375 0 129.070312 "/></clipPath><clipPath id="134fd0c092"><path d="M 99 175.839844 L 281 175.839844 L 281 222.339844 L 99 222.339844 Z M 99 175.839844 "/></clipPath></defs><g id="3c98d3a666"><g clip-rule="nonzero" clip-path="url(#f4e396a53a)"><g clip-rule="nonzero" clip-path="url(#25be6a47bc)"><path style=" stroke:none;fill-rule:nonzero;fill:#ff1616;fill-opacity:1;" d="M 0 32.019531 L 374.660156 32.019531 L 374.660156 360.96875 L 0 360.96875 Z M 0 32.019531 "/></g></g><path style=" stroke:none;fill-rule:nonzero;fill:#ffffff;fill-opacity:1;" d="M 275.582031 197.410156 C 273.710938 197.410156 272.195312 198.917969 272.195312 200.777344 C 272.195312 202.640625 273.710938 204.148438 275.582031 204.148438 C 277.449219 204.148438 278.964844 202.640625 278.964844 200.777344 C 278.964844 198.917969 277.449219 197.410156 275.582031 197.410156 "/><g clip-rule="nonzero" clip-path="url(#134fd0c092)"><path style=" stroke:none;fill-rule:nonzero;fill:#ffffff;fill-opacity:1;" d="M 275.578125 204.941406 C 273.273438 204.941406 271.402344 203.078125 271.402344 200.777344 C 271.402344 198.480469 273.273438 196.617188 275.578125 196.617188 C 277.886719 196.617188 279.757812 198.480469 279.757812 200.777344 C 279.757812 203.078125 277.886719 204.941406 275.578125 204.941406 Z M 104.566406 204.941406 C 102.257812 204.941406 100.386719 203.078125 100.386719 200.777344 C 100.386719 198.480469 102.257812 196.617188 104.566406 196.617188 C 106.875 196.617188 108.742188 198.480469 108.742188 200.777344 C 108.742188 203.078125 106.875 204.941406 104.566406 204.941406 Z M 280.730469 200.1875 C 280.464844 197.820312 278.542969 195.910156 276.167969 195.652344 C 273.457031 195.355469 271.117188 197.136719 270.539062 199.597656 L 243.765625 199.597656 L 240.910156 184.550781 L 234.070312 208.929688 L 229.199219 175.84375 L 224.121094 202.5 L 220.144531 188.707031 L 216.660156 199.320312 L 163.484375 199.320312 L 160 188.707031 L 156.023438 202.5 L 150.945312 175.84375 L 146.074219 208.929688 L 139.234375 184.550781 L 136.378906 199.597656 L 109.605469 199.597656 C 109.027344 197.136719 106.6875 195.355469 103.980469 195.652344 C 101.601562 195.910156 99.679688 197.820312 99.417969 200.1875 C 99.070312 203.304688 101.507812 205.941406 104.566406 205.941406 C 106.863281 205.941406 108.808594 204.449219 109.488281 202.386719 L 138.699219 202.386719 L 139.761719 196.792969 L 146.929688 222.347656 L 151.300781 192.667969 L 155.46875 214.546875 L 160.175781 198.214844 L 161.453125 202.109375 L 218.691406 202.109375 L 219.96875 198.214844 L 224.679688 214.546875 L 228.84375 192.667969 L 233.214844 222.347656 L 240.382812 196.792969 L 241.445312 202.386719 L 270.65625 202.386719 C 271.335938 204.449219 273.28125 205.941406 275.578125 205.941406 C 278.636719 205.941406 281.078125 203.304688 280.730469 200.1875 "/></g><path style=" stroke:none;fill-rule:nonzero;fill:#ffffff;fill-opacity:1;" d="M 104.566406 197.410156 C 102.695312 197.410156 101.179688 198.917969 101.179688 200.777344 C 101.179688 202.640625 102.695312 204.148438 104.566406 204.148438 C 106.433594 204.148438 107.949219 202.640625 107.949219 200.777344 C 107.949219 198.917969 106.433594 197.410156 104.566406 197.410156 "/></g></svg>